<svg id="Layer_1" data-name="Layer 1" xmlns="http://www.w3.org/2000/svg" viewBox="0 0 634.89 261.43"><title> final logo masteka</title><path d="M133.36,240.92,114.23,258q-8,7.15-16,14.31c-4.11,3.67-8.73,3.63-12.82,0q-17-15.3-34.12-30.58c-.29-.26-.59-.49-1-.8l-9.25,8.27q-12.94,11.58-25.86,23.17c-4,3.61-9.38,3.56-12.77-.15s-3.06-9.11.91-12.74C8,255.2,12.78,251,17.49,246.8Q30.76,234.94,44,223.07c4.06-3.62,8.61-3.65,12.7,0q17,15.2,34,30.46c.35.32.73.61,1.15,1l12-10.73q11.53-10.31,23.05-20.63c4.13-3.69,8.69-3.71,12.82,0q17,15.16,33.92,30.37l1.2,1,8.47-7.57q13.43-12,26.85-24c2.29-2.05,5-3.05,7.92-2.23a12.13,12.13,0,0,1,4.64,2.53c11.36,10.06,22.64,20.21,33.95,30.34.36.32.74.63,1.17,1L271,242.85q11.2-10,22.4-20a8.73,8.73,0,0,1,13.39,11,11.72,11.72,0,0,1-2,2.3Q284.38,254.38,264,272.61a8.74,8.74,0,0,1-12.26,0Q234.87,257.51,218,242.41L216.42,241c-.34.27-.68.51-1,.79l-34.13,30.57c-4.11,3.68-8.71,3.7-12.82,0q-17-15.18-33.9-30.38C134.21,241.65,133.84,241.34,133.36,240.92Z" transform="translate(-0.13 -13.68)" style="fill:#ed1c24"/><path d="M156.21,21.4a6.12,6.12,0,0,1-1.87,4.23q-1.87,2-3.36,3.86t-1.49,7.59q.24,8,0,8.21a860.13,860.13,0,0,0-6.22,99.49V168.4q1,17.66,7.46,19.9v2.49a4.32,4.32,0,0,1-4.23,2.74q-15.67,0-18.66-30.59a124.55,124.55,0,0,1-.25-23.63L134.07,59l-18.36,67.16q-16.88,52.74-33,52.73-7.2,0-14.89-9.2a49.57,49.57,0,0,1-9.43-15.42q-7.7-19.65-15.88-54.47Q36.3,71.89,29.85,44.28L28.36,48q-4.73,46-4,65.91l2.49,57q.5,9,6,9.7.24,6.72-11.94,6.72-11.19,0-11.19-41,0-18.65,2-55.59t2-55.59a20.47,20.47,0,0,0-.75-6.22,13.68,13.68,0,0,1-.75-2.74q0-9.7,19.9-9.7,3.73,0,9,5.22.75,7.71,2.24,22.88Q46,66.42,58,108.2q14.42,51.24,23.63,51.24,11.69,0,25.62-46.76A573.5,573.5,0,0,0,121.14,53q3.23-9.45,8.21-26.86,3-11.19,17.16-11.19A13.58,13.58,0,0,1,153,16.67Q156.21,18.41,156.21,21.4Z" transform="translate(-0.13 -13.68)" style="stroke:#000;stroke-miterlimit:10;stroke-width:2px"/><path d="M246,194q0,3.48-5.47,3.48-6,0-7.21-5-.25-.75-.25-9.7a9,9,0,0,0-.75-4Q218.39,189,202.23,189a41.78,41.78,0,0,1-21.64-6.22q-11.94-7-11.94-17.41,0-10.2,14.18-19.9,12.93-9,23.88-9h24.63q1.49-1.49,1.49-5.22,0-16.66-2.74-25.12Q225.61,92,212.42,92,203,92,195,104q-7.22,10.95-7.21,20.89v2.74a1.76,1.76,0,0,1-2,2q-2.49,0-5.47-3t-3-5.22q0-7,4.23-17.54t9.2-16a20.16,20.16,0,0,1,15.42-6.72,42.58,42.58,0,0,1,26.12,9q12.69,9.7,12.93,23.38Zm-13.18-39.55q0-9.95-15.42-10A50.78,50.78,0,0,0,196,148.75q-11.69,5.47-11.69,16.42,0,6.71,6.22,10.45A23.14,23.14,0,0,0,203,178.84a33.89,33.89,0,0,0,20.27-7Q232.82,164.92,232.82,154.47Z" transform="translate(-0.13 -13.68)" style="stroke:#000;stroke-miterlimit:10;stroke-width:2px"/><path d="M334.8,172.33q0,8.73-13.18,14.71a53.17,53.17,0,0,1-21.14,4.74,44.84,44.84,0,0,1-15.42-3.26q-4.73-2-15.17-10.52-11.44-9.27-11.44-12.78,0-7.76,9.2-7h1.49q.5,7.54,15.92,16.33,13.93,8,22.39,8,10.94,0,10.94-7.48,0-4.48-13.43-12.46-18.41-10.72-25.12-17.2Q266.15,132.22,266.15,115a48.9,48.9,0,0,1,6.72-24.68q7.71-14,19.4-14,8.45,0,20.4,7.84T326.59,100a55.42,55.42,0,0,1,2,15.67,73,73,0,0,1-3.48,21.14,8.26,8.26,0,0,1-5.22,1.74,18.14,18.14,0,0,1-5.47-1.37q-3.73-1.36-3.73-2.86,0,1,2.74-5.47,2-4.23,2-15.42,0-26.61-16.67-26.61-8.71,0-13.93,11.72a44.54,44.54,0,0,0-4.48,19.2q0,12.22,14.18,23.68,4.72,4,26.12,17.21Q334.8,167.35,334.8,172.33Z" transform="translate(-0.13 -13.68)" style="stroke:#000;stroke-miterlimit:10;stroke-width:2px"/><path d="M388.53,108.45q-2,1.49-9.45,2.49-8.21,1-9.45,1.74-.25,2.74-.25,27.61,0,19.4.5,26.12a48,48,0,0,0,1.24,8.71,48.82,48.82,0,0,1,1.24,9.2c0,1.33-.83,2.65-2.49,4a7.53,7.53,0,0,1-4.48,2q-5,0-8-10.2a55,55,0,0,1-2-14.18V114.17q-1.46-1.24-11.15,0-7.75,1-7.75-5.72,0-9.45,20.15-8.71l3.23-45a7.67,7.67,0,0,0-.62-2.36,7.54,7.54,0,0,1-.62-2.36q0-1.49,2-2.86A7,7,0,0,1,365.39,46q8.7.75,8.71,8.71a148.11,148.11,0,0,1-1.74,18.66,147.08,147.08,0,0,0-1.74,18.41,31.71,31.71,0,0,0,.5,5.72l13.68-.75q7,0,7,5.47A7.15,7.15,0,0,1,388.53,108.45Z" transform="translate(-0.13 -13.68)" style="stroke:#000;stroke-miterlimit:10;stroke-width:2px"/><path d="M467.87,162.18q0,10.95-14.68,19.65-13.19,8-24.87,8Q395,189.79,395,147.5q0-18.66,6.72-40,9-27.85,22.88-27.86,11.94,0,26.12,12.06t14.18,24q0,15.42-12.44,26.86T424.34,154q-1.49,0-6.34-2.49T411.41,149q-3.24,0-3.23,2,0,28.61,18.9,28.6A28.31,28.31,0,0,0,445,173.12q5-3.73,10.94-11.69,4.72-6.21,6.22-6.22Q467.87,155.21,467.87,162.18Zm-17.16-45.77a29.18,29.18,0,0,0-5-16.29q-5-7.58-13.18-7.59-10,0-16.17,12.44a47.82,47.82,0,0,0-5.22,21.64,16.83,16.83,0,0,0,4.6,12.06,15.56,15.56,0,0,0,11.82,4.85q10.2,0,16.91-8.71A29.07,29.07,0,0,0,450.71,116.41Z" transform="translate(-0.13 -13.68)" style="stroke:#000;stroke-miterlimit:10;stroke-width:2px"/><path d="M566.37,196.5q-6.24,5-10,5-5.49,0-19-15.67-17-20.15-18-21.14-3-2.48-10.48-11.69-6.5-7.71-11.48-10.7l-4.49,6v24.63a17.84,17.84,0,0,0,1.74,6.34,17.92,17.92,0,0,1,1.74,6.34q0,1.49-2.11,2.86a7.3,7.3,0,0,1-3.86,1.37q-10,0-9.95-10.7V144.27a89.56,89.56,0,0,1,.75-9.58,89.48,89.48,0,0,0,.75-9.58V56.47a182,182,0,0,0-1.15-23.13,28.36,28.36,0,0,0-1.15-5.47,30.67,30.67,0,0,1-.69-5.72q0-2.48,3.85-5a13.09,13.09,0,0,1,6.84-2.49A10.58,10.58,0,0,1,494.61,16q2.61,1.37,2.61,3.36,0,.25-1.32,6Q494,32.09,494,51.49L493,123.63l1.25,1.24q8-5,22-18.41l17.48-17.91q14.23-14.42,16.73-14.43a6.9,6.9,0,0,1,6,3.36,11.16,11.16,0,0,1,2,7.09l-.25,1.24q-9.5,6.22-28,22.39-21.25,18.66-21.25,24.63,0,2.24,7.49,11.19,11.74,13.68,23.23,27.36,15.74,17.16,26.73,22.39Z" transform="translate(-0.13 -13.68)" style="stroke:#000;stroke-miterlimit:10;stroke-width:2px"/><path d="M634,194q0,3.48-5.47,3.48-6,0-7.21-5-.25-.75-.25-9.7a9,9,0,0,0-.75-4Q606.41,189,590.25,189a41.78,41.78,0,0,1-21.64-6.22q-11.94-7-11.94-17.41,0-10.2,14.18-19.9,12.93-9,23.88-9h24.63q1.49-1.49,1.49-5.22,0-16.66-2.74-25.12Q613.63,92,600.44,92,591,92,583,104q-7.22,10.95-7.21,20.89v2.74a1.76,1.76,0,0,1-2,2q-2.49,0-5.47-3t-3-5.22q0-7,4.23-17.54t9.2-16a20.16,20.16,0,0,1,15.42-6.72,42.59,42.59,0,0,1,26.12,9q12.69,9.7,12.93,23.38Zm-13.18-39.55q0-9.95-15.42-10A50.78,50.78,0,0,0,584,148.75q-11.69,5.47-11.69,16.42,0,6.71,6.22,10.45A23.14,23.14,0,0,0,591,178.84a33.9,33.9,0,0,0,20.27-7Q620.84,164.92,620.84,154.47Z" transform="translate(-0.13 -13.68)" style="stroke:#000;stroke-miterlimit:10;stroke-width:2px"/></svg>