<?xml version="1.0" encoding="UTF-8" standalone="no"?>
<svg
   xmlns:dc="http://purl.org/dc/elements/1.1/"
   xmlns:cc="http://creativecommons.org/ns#"
   xmlns:rdf="http://www.w3.org/1999/02/22-rdf-syntax-ns#"
   xmlns:svg="http://www.w3.org/2000/svg"
   xmlns="http://www.w3.org/2000/svg"
   height="240.511"
   width="816.0318"
   version="1.1"
   viewBox="0 0 816.03181 240.51101"
   data-name="Layer 1"
   id="Layer_1">
  <metadata
     id="metadata72">
    <rdf:RDF>
      <cc:Work
         rdf:about="">
        <dc:format>image/svg+xml</dc:format>
        <dc:type
           rdf:resource="http://purl.org/dc/dcmitype/StillImage" />
        <dc:title> final logo</dc:title>
      </cc:Work>
    </rdf:RDF>
  </metadata>
  <defs
     id="defs70" />
  <title
     id="title61"> final logo</title>
  <path
     id="path63"
     style="fill:#ed1c24"
     d="m 133.27458,206.30349 -19.13,17.08 q -8,7.15 -16,14.31 c -4.11,3.67 -8.73,3.63 -12.82,0 q -17,-15.3 -34.12,-30.58 c -0.29,-0.26 -0.59,-0.49 -1,-0.8 l -9.25,8.27 q -12.94,11.58 -25.86,23.17 c -4,3.61 -9.3800004,3.56 -12.7700004,-0.15 -3.39,-3.71 -3.05999998,-9.11 0.91,-12.74 4.68,-4.28 9.4600004,-8.48 14.1700004,-12.68 q 13.27,-11.86 26.51,-23.73 c 4.06,-3.62 8.61,-3.65 12.7,0 q 17,15.2 34,30.46 c 0.35,0.32 0.73,0.61 1.15,1 l 12,-10.73 q 11.53,-10.31 23.05,-20.63 c 4.13,-3.69 8.69,-3.71 12.82,0 q 17,15.16 33.92,30.37 l 1.2,1 8.47,-7.57 q 13.43,-12 26.85,-24 c 2.29,-2.05 5,-3.05 7.92,-2.23 a 12.13,12.13 0 0 1 4.64,2.53 c 11.36,10.06 22.64,20.21 33.95,30.34 0.36,0.32 0.74,0.63 1.17,1 l 13.16,-11.76 q 11.2,-10 22.4,-20 a 8.73,8.73 0 0 1 13.39,11 11.72,11.72 0 0 1 -2,2.3 q -20.41,18.23 -40.79,36.46 a 8.74,8.74 0 0 1 -12.26,0 q -16.87,-15.1 -33.74,-30.2 l -1.58,-1.41 c -0.34,0.27 -0.68,0.51 -1,0.79 l -34.13,30.57 c -4.11,3.68 -8.71,3.7 -12.82,0 q -17,-15.18 -33.9,-30.38 c -0.36,-0.33 -0.73,-0.64 -1.21,-1.06 z" />
  <text
     y="152.18349"
     x="0.91457963"
     id="text65"
     style="font-size:198.98701477px;font-family:Noteworthy-Light, Noteworthy;stroke:#000000;stroke-width:2px;stroke-miterlimit:10">Masteka</text>
</svg>
